<svg width="24" height="21" viewBox="0 0 24 21" fill="currentColor" xmlns="http://www.w3.org/2000/svg">
<path d="M21.533 5.82611C21.5482 6.03929 21.5482 6.25253 21.5482 6.46571C21.5482 12.9682 16.599 20.4606 7.5533 20.4606C4.76648 20.4606 2.17767 19.6535 0 18.2525C0.395953 18.2982 0.776625 18.3134 1.18781 18.3134C3.48727 18.3134 5.60405 17.5368 7.29441 16.2119C5.13197 16.1662 3.31978 14.75 2.69541 12.8007C3 12.8464 3.30455 12.8769 3.62437 12.8769C4.06598 12.8769 4.50764 12.8159 4.91878 12.7094C2.66498 12.2525 0.974578 10.2728 0.974578 7.88195V7.82106C1.62937 8.18654 2.39086 8.41496 3.19791 8.44539C1.87303 7.56212 1.00505 6.05453 1.00505 4.34893C1.00505 3.43525 1.24866 2.59768 1.67508 1.86671C4.09641 4.85148 7.73602 6.80068 11.8172 7.01392C11.7411 6.64843 11.6954 6.26776 11.6954 5.88704C11.6954 3.17636 13.8883 0.968262 16.6141 0.968262C18.0304 0.968262 19.3095 1.56217 20.208 2.52156C21.3197 2.30837 22.3857 1.89718 23.3299 1.33375C22.9643 2.4759 22.1877 3.43529 21.1674 4.04439C22.1573 3.93784 23.1167 3.66367 23.9999 3.283C23.33 4.25757 22.4924 5.12556 21.533 5.82611Z" fill="currentColor"/>
</svg>
